<svg width="24" height="24" viewBox="0 0 24 24" fill="none" xmlns="http://www.w3.org/2000/svg">
<path d="M17.8933 7.07333C17.5528 6.73267 17.1485 6.46243 16.7036 6.27805C16.2586 6.09368 15.7817 5.99878 15.3 5.99878C14.8183 5.99878 14.3414 6.09368 13.8964 6.27805C13.4515 6.46243 13.0472 6.73267 12.7067 7.07333L12 7.78L11.2933 7.07333C10.6055 6.38553 9.67269 5.99914 8.7 5.99914C7.72731 5.99914 6.79446 6.38553 6.10666 7.07333C5.41887 7.76112 5.03247 8.69397 5.03247 9.66666C5.03247 10.6394 5.41887 11.5722 6.10666 12.26L6.81333 12.9667L12 18.1533L17.1867 12.9667L17.8933 12.26C18.234 11.9195 18.5042 11.5152 18.6886 11.0702C18.873 10.6253 18.9679 10.1483 18.9679 9.66666C18.9679 9.185 18.873 8.70807 18.6886 8.26309C18.5042 7.81812 18.234 7.41383 17.8933 7.07333Z" fill="url(#paint0_linear_966_72)" stroke="url(#paint1_linear_966_72)" stroke-linecap="round" stroke-linejoin="round"/>
<defs>
<linearGradient id="paint0_linear_966_72" x1="16.6453" y1="5.99878" x2="4.81326" y2="9.18028" gradientUnits="userSpaceOnUse">
<stop stop-color="#0698F9"/>
<stop offset="1" stop-color="#F906F9"/>
</linearGradient>
<linearGradient id="paint1_linear_966_72" x1="16.6453" y1="5.99878" x2="4.81326" y2="9.18028" gradientUnits="userSpaceOnUse">
<stop stop-color="#0698F9"/>
<stop offset="1" stop-color="#F906F9"/>
</linearGradient>
</defs>
</svg>
