<svg width="22" height="22" viewBox="0 0 22 22" fill="none" xmlns="http://www.w3.org/2000/svg">
<path d="M16.2381 6.25583H17.1904M5.28569 1.47778H16.7143C18.8182 1.47778 20.5238 3.18915 20.5238 5.30022V16.7675C20.5238 18.8786 18.8182 20.59 16.7143 20.59H5.28569C3.18175 20.59 1.47617 18.8786 1.47617 16.7675V5.30022C1.47617 3.18915 3.18175 1.47778 5.28569 1.47778ZM11 14.8563C8.89603 14.8563 7.19045 13.145 7.19045 11.0339C7.19045 8.9228 8.89603 7.21144 11 7.21144C13.1039 7.21144 14.8095 8.9228 14.8095 11.0339C14.8095 13.145 13.1039 14.8563 11 14.8563Z" stroke="#BDCADB" stroke-width="1.67232"/>
</svg>
