<svg width="22" height="21" viewBox="0 0 22 21" fill="none" xmlns="http://www.w3.org/2000/svg">
<path d="M20.4944 1.91113L21.3287 1.856C21.3065 1.52029 21.0853 1.23057 20.7673 1.12076C20.4493 1.01095 20.0964 1.10245 19.8718 1.35295L20.4944 1.91113ZM19.9721 5.9505C19.9721 5.4887 19.5977 5.11434 19.1359 5.11434C18.6741 5.11434 18.2998 5.4887 18.2998 5.9505H19.9721ZM11 7.16698V8.00314H11.8361V7.16698H11ZM2.83461 1.91113L3.618 1.6188C3.50154 1.30671 3.21095 1.09352 2.87829 1.07612C2.54563 1.05871 2.23438 1.24043 2.08599 1.53866L2.83461 1.91113ZM8.14283 14.3341L8.73554 14.9238C8.93954 14.7188 9.02311 14.423 8.95653 14.1415C8.88994 13.8601 8.68265 13.6331 8.40842 13.5412L8.14283 14.3341ZM1.47617 16.9279V16.0917C1.10805 16.0917 0.783237 16.3324 0.676162 16.6846C0.569087 17.0368 0.704941 17.4176 1.01077 17.6225L1.47617 16.9279ZM18.0967 3.23995L17.4755 3.7997L17.777 4.13428L18.2223 4.06662L18.0967 3.23995ZM19.6601 1.96626C19.7297 3.02053 19.6635 3.64103 19.5021 4.09751C19.3469 4.53639 19.0754 4.90486 18.5564 5.40386L19.7155 6.60935C20.319 6.02904 20.7991 5.4459 21.0788 4.65493C21.3522 3.88156 21.4039 2.99398 21.3287 1.856L19.6601 1.96626ZM19.9721 6.94514V6.0066H18.2998V6.94514H19.9721ZM19.9721 6.0066V5.9505H18.2998V6.0066H19.9721ZM10.1638 6.21137V7.16698H11.8361V6.21137H10.1638ZM15.1164 1.07497C12.3279 1.07497 10.1638 3.5032 10.1638 6.21137H11.8361C11.8361 4.33385 13.3418 2.74729 15.1164 2.74729V1.07497ZM18.2998 6.94514C18.2998 12.7698 13.4223 17.7981 7.66664 17.7981V19.4705C14.3838 19.4705 19.9721 13.655 19.9721 6.94514H18.2998ZM2.05122 2.20346C2.81626 4.25365 5.66726 8.00314 11 8.00314V6.33083C6.55189 6.33083 4.21141 3.20903 3.618 1.6188L2.05122 2.20346ZM2.08599 1.53866C0.649187 4.42647 0.387063 7.27814 1.40562 9.72389C2.42437 12.1701 4.65669 14.0481 7.87724 15.1269L8.40842 13.5412C5.51597 12.5723 3.73573 10.9691 2.94941 9.08097C2.16288 7.19235 2.30314 4.85642 3.58323 2.2836L2.08599 1.53866ZM7.55012 13.7443C6.76327 14.535 4.46513 16.0917 1.47617 16.0917V17.764C5.00773 17.764 7.71116 15.9533 8.73554 14.9238L7.55012 13.7443ZM18.7178 2.6802C17.831 1.69609 16.5458 1.07497 15.1164 1.07497V2.74729C16.051 2.74729 16.8914 3.15153 17.4755 3.7997L18.7178 2.6802ZM18.2223 4.06662C19.2948 3.90363 20.3367 3.33959 21.117 2.46931L19.8718 1.35295C19.3398 1.94632 18.6444 2.31095 17.971 2.41328L18.2223 4.06662ZM1.01077 17.6225C3.22965 19.1091 5.36738 19.4705 7.66664 19.4705V17.7981C5.57568 17.7981 3.79801 17.4769 1.94157 16.2332L1.01077 17.6225Z" fill="#BDCADB"/>
</svg>
