<svg width="24" height="25" viewBox="0 0 24 25" fill="none" xmlns="http://www.w3.org/2000/svg">
<path d="M9.69492 2.65032C10.6995 0.841645 13.3005 0.841645 14.3051 2.65032C14.9004 3.72217 16.156 4.24225 17.3348 3.90528C19.3241 3.33667 21.1633 5.17592 20.5947 7.16516C20.2577 8.34403 20.7778 9.59961 21.8497 10.1949C23.6584 11.1995 23.6584 13.8005 21.8497 14.8051C20.7778 15.4004 20.2577 16.656 20.5947 17.8348C21.1633 19.8241 19.3241 21.6633 17.3348 21.0947C16.156 20.7577 14.9004 21.2778 14.3051 22.3497C13.3005 24.1584 10.6995 24.1584 9.69492 22.3497C9.09961 21.2778 7.84403 20.7577 6.66516 21.0947C4.67592 21.6633 2.83667 19.8241 3.40528 17.8348C3.74225 16.656 3.22217 15.4004 2.15032 14.8051C0.341644 13.8005 0.341645 11.1995 2.15032 10.1949C3.22217 9.59961 3.74225 8.34403 3.40528 7.16516C2.83667 5.17592 4.67592 3.33667 6.66516 3.90528C7.84403 4.24225 9.09961 3.72217 9.69492 2.65032Z" fill="#FED144"/>
<path d="M16.6667 8.5L10.8 15.8333L8.13333 12.5" stroke="#282329" stroke-width="2" stroke-linecap="round" stroke-linejoin="round"/>
</svg>
