<svg width="164" height="44" viewBox="0 0 164 44" fill="none" xmlns="http://www.w3.org/2000/svg">
<rect width="164" height="44" rx="12" fill="#CDE2FE"/>
<path d="M24.1638 14.5C26.0379 14.5 27.6251 15.121 28.8913 16.1528L27.3001 17.744C26.4098 17.0446 25.3341 16.6887 24.1638 16.6887C21.1827 16.6887 18.7808 19.1997 18.7808 22.1588C18.7808 25.1165 21.1821 27.6331 24.1638 27.6331C26.8141 27.6331 28.7152 26.0956 29.1053 23.9043L29.21 23.3166H28.6131H24.6638V21.1329H31.4172C31.4712 21.5244 31.5 21.9291 31.5 22.3471C31.5 24.5661 30.7591 26.4309 29.491 27.7382C28.2245 29.0439 26.3995 29.8276 24.1638 29.8276H24.1636C23.1571 29.8279 22.1605 29.6299 21.2305 29.2448C20.3006 28.8598 19.4556 28.2953 18.7439 27.5836C18.0322 26.8719 17.4678 26.027 17.0827 25.0971C16.6977 24.1671 16.4997 23.1704 16.5 22.1639L16.5 22.1636C16.4997 21.1571 16.6977 20.1605 17.0827 19.2305C17.4678 18.3006 18.0322 17.4556 18.7439 16.7439C19.4556 16.0322 20.3006 15.4678 21.2305 15.0827C22.1605 14.6977 23.1571 14.4997 24.1636 14.5H24.1638Z" fill="#476285" stroke="#476285"/>
<path d="M55.7011 20.08C55.4131 19.5253 55.0131 19.1093 54.5011 18.832C53.9891 18.544 53.3971 18.4 52.7251 18.4C51.9891 18.4 51.3331 18.5653 50.7571 18.896C50.1811 19.2267 49.7278 19.696 49.3971 20.304C49.0771 20.912 48.9171 21.616 48.9171 22.416C48.9171 23.216 49.0771 23.9253 49.3971 24.544C49.7278 25.152 50.1811 25.6213 50.7571 25.952C51.3331 26.2827 51.9891 26.448 52.7251 26.448C53.7171 26.448 54.5225 26.1707 55.1411 25.616C55.7598 25.0613 56.1385 24.3093 56.2771 23.36H52.1011V21.904H58.2291V23.328C58.1118 24.192 57.8025 24.9867 57.3011 25.712C56.8105 26.4373 56.1651 27.0187 55.3651 27.456C54.5758 27.8827 53.6958 28.096 52.7251 28.096C51.6798 28.096 50.7251 27.856 49.8611 27.376C48.9971 26.8853 48.3091 26.208 47.7971 25.344C47.2958 24.48 47.0451 23.504 47.0451 22.416C47.0451 21.328 47.2958 20.352 47.7971 19.488C48.3091 18.624 48.9971 17.952 49.8611 17.472C50.7358 16.9813 51.6905 16.736 52.7251 16.736C53.9091 16.736 54.9598 17.0293 55.8771 17.616C56.8051 18.192 57.4771 19.0133 57.8931 20.08H55.7011ZM63.8521 28.144C63.0201 28.144 62.2681 27.9573 61.5961 27.584C60.9241 27.2 60.3961 26.6667 60.0121 25.984C59.6281 25.2907 59.4361 24.4907 59.4361 23.584C59.4361 22.688 59.6335 21.8933 60.0281 21.2C60.4228 20.5067 60.9615 19.9733 61.6441 19.6C62.3268 19.2267 63.0895 19.04 63.9321 19.04C64.7748 19.04 65.5375 19.2267 66.2201 19.6C66.9028 19.9733 67.4415 20.5067 67.8361 21.2C68.2308 21.8933 68.4281 22.688 68.4281 23.584C68.4281 24.48 68.2255 25.2747 67.8201 25.968C67.4148 26.6613 66.8601 27.2 66.1561 27.584C65.4628 27.9573 64.6948 28.144 63.8521 28.144ZM63.8521 26.56C64.3215 26.56 64.7588 26.448 65.1641 26.224C65.5801 26 65.9161 25.664 66.1721 25.216C66.4281 24.768 66.5561 24.224 66.5561 23.584C66.5561 22.944 66.4335 22.4053 66.1881 21.968C65.9428 21.52 65.6175 21.184 65.2121 20.96C64.8068 20.736 64.3695 20.624 63.9001 20.624C63.4308 20.624 62.9935 20.736 62.5881 20.96C62.1935 21.184 61.8788 21.52 61.6441 21.968C61.4095 22.4053 61.2921 22.944 61.2921 23.584C61.2921 24.5333 61.5321 25.2693 62.0121 25.792C62.5028 26.304 63.1161 26.56 63.8521 26.56ZM74.0553 28.144C73.2233 28.144 72.4713 27.9573 71.7993 27.584C71.1273 27.2 70.5993 26.6667 70.2153 25.984C69.8313 25.2907 69.6393 24.4907 69.6393 23.584C69.6393 22.688 69.8366 21.8933 70.2313 21.2C70.6259 20.5067 71.1646 19.9733 71.8473 19.6C72.5299 19.2267 73.2926 19.04 74.1353 19.04C74.9779 19.04 75.7406 19.2267 76.4233 19.6C77.1059 19.9733 77.6446 20.5067 78.0393 21.2C78.4339 21.8933 78.6313 22.688 78.6313 23.584C78.6313 24.48 78.4286 25.2747 78.0233 25.968C77.6179 26.6613 77.0633 27.2 76.3593 27.584C75.6659 27.9573 74.8979 28.144 74.0553 28.144ZM74.0553 26.56C74.5246 26.56 74.9619 26.448 75.3673 26.224C75.7833 26 76.1193 25.664 76.3753 25.216C76.6313 24.768 76.7593 24.224 76.7593 23.584C76.7593 22.944 76.6366 22.4053 76.3913 21.968C76.1459 21.52 75.8206 21.184 75.4153 20.96C75.0099 20.736 74.5726 20.624 74.1033 20.624C73.6339 20.624 73.1966 20.736 72.7913 20.96C72.3966 21.184 72.0819 21.52 71.8473 21.968C71.6126 22.4053 71.4953 22.944 71.4953 23.584C71.4953 24.5333 71.7353 25.2693 72.2153 25.792C72.7059 26.304 73.3193 26.56 74.0553 26.56ZM83.9864 19.04C84.669 19.04 85.2717 19.1787 85.7944 19.456C86.3277 19.7227 86.7437 20.0587 87.0424 20.464V19.184H88.8824V28.144C88.8824 28.9547 88.7117 29.6747 88.3704 30.304C88.029 30.944 87.533 31.4453 86.8824 31.808C86.2424 32.1707 85.4744 32.352 84.5784 32.352C83.3837 32.352 82.3917 32.0693 81.6024 31.504C80.813 30.9493 80.365 30.192 80.2584 29.232H82.0664C82.205 29.6907 82.4984 30.0587 82.9464 30.336C83.405 30.624 83.949 30.768 84.5784 30.768C85.3144 30.768 85.9064 30.544 86.3544 30.096C86.813 29.648 87.0424 28.9973 87.0424 28.144V26.672C86.733 27.088 86.3117 27.44 85.7784 27.728C85.2557 28.0053 84.6584 28.144 83.9864 28.144C83.2184 28.144 82.5144 27.952 81.8744 27.568C81.245 27.1733 80.7437 26.6293 80.3704 25.936C80.0077 25.232 79.8264 24.4373 79.8264 23.552C79.8264 22.6667 80.0077 21.8827 80.3704 21.2C80.7437 20.5173 81.245 19.9893 81.8744 19.616C82.5144 19.232 83.2184 19.04 83.9864 19.04ZM87.0424 23.584C87.0424 22.976 86.9144 22.448 86.6584 22C86.413 21.552 86.0877 21.2107 85.6824 20.976C85.277 20.7413 84.8397 20.624 84.3704 20.624C83.901 20.624 83.4637 20.7413 83.0584 20.976C82.653 21.2 82.3224 21.536 82.0664 21.984C81.821 22.4213 81.6984 22.944 81.6984 23.552C81.6984 24.16 81.821 24.6933 82.0664 25.152C82.3224 25.6107 82.653 25.9627 83.0584 26.208C83.4744 26.4427 83.9117 26.56 84.3704 26.56C84.8397 26.56 85.277 26.4427 85.6824 26.208C86.0877 25.9733 86.413 25.632 86.6584 25.184C86.9144 24.7253 87.0424 24.192 87.0424 23.584ZM93.1021 16.16V28H91.2781V16.16H93.1021ZM103.577 23.376C103.577 23.7067 103.556 24.0053 103.513 24.272H96.7769C96.8302 24.976 97.0915 25.5413 97.5609 25.968C98.0302 26.3947 98.6062 26.608 99.2889 26.608C100.27 26.608 100.964 26.1973 101.369 25.376H103.337C103.07 26.1867 102.585 26.8533 101.881 27.376C101.188 27.888 100.324 28.144 99.2889 28.144C98.4462 28.144 97.6889 27.9573 97.0169 27.584C96.3555 27.2 95.8329 26.6667 95.4489 25.984C95.0755 25.2907 94.8889 24.4907 94.8889 23.584C94.8889 22.6773 95.0702 21.8827 95.4329 21.2C95.8062 20.5067 96.3235 19.9733 96.9849 19.6C97.6569 19.2267 98.4249 19.04 99.2889 19.04C100.121 19.04 100.862 19.2213 101.513 19.584C102.164 19.9467 102.67 20.4587 103.033 21.12C103.396 21.7707 103.577 22.5227 103.577 23.376ZM101.673 22.8C101.662 22.128 101.422 21.5893 100.953 21.184C100.484 20.7787 99.9022 20.576 99.2089 20.576C98.5795 20.576 98.0409 20.7787 97.5929 21.184C97.1449 21.5787 96.8782 22.1173 96.7929 22.8H101.673ZM111.352 20.48C111.661 20.0747 112.083 19.7333 112.616 19.456C113.149 19.1787 113.752 19.04 114.424 19.04C115.192 19.04 115.891 19.232 116.52 19.616C117.16 19.9893 117.661 20.5173 118.024 21.2C118.387 21.8827 118.568 22.6667 118.568 23.552C118.568 24.4373 118.387 25.232 118.024 25.936C117.661 26.6293 117.16 27.1733 116.52 27.568C115.891 27.952 115.192 28.144 114.424 28.144C113.752 28.144 113.155 28.0107 112.632 27.744C112.109 27.4667 111.683 27.1253 111.352 26.72V32.192H109.528V19.184H111.352V20.48ZM116.712 23.552C116.712 22.944 116.584 22.4213 116.328 21.984C116.083 21.536 115.752 21.2 115.336 20.976C114.931 20.7413 114.493 20.624 114.024 20.624C113.565 20.624 113.128 20.7413 112.712 20.976C112.307 21.2107 111.976 21.552 111.72 22C111.475 22.448 111.352 22.976 111.352 23.584C111.352 24.192 111.475 24.7253 111.72 25.184C111.976 25.632 112.307 25.9733 112.712 26.208C113.128 26.4427 113.565 26.56 114.024 26.56C114.493 26.56 114.931 26.4427 115.336 26.208C115.752 25.9627 116.083 25.6107 116.328 25.152C116.584 24.6933 116.712 24.16 116.712 23.552ZM122.196 16.16V28H120.372V16.16H122.196ZM123.983 23.552C123.983 22.6667 124.164 21.8827 124.527 21.2C124.9 20.5173 125.401 19.9893 126.031 19.616C126.671 19.232 127.375 19.04 128.143 19.04C128.836 19.04 129.439 19.1787 129.951 19.456C130.473 19.7227 130.889 20.0587 131.199 20.464V19.184H133.039V28H131.199V26.688C130.889 27.104 130.468 27.4507 129.935 27.728C129.401 28.0053 128.793 28.144 128.111 28.144C127.353 28.144 126.66 27.952 126.031 27.568C125.401 27.1733 124.9 26.6293 124.527 25.936C124.164 25.232 123.983 24.4373 123.983 23.552ZM131.199 23.584C131.199 22.976 131.071 22.448 130.815 22C130.569 21.552 130.244 21.2107 129.839 20.976C129.433 20.7413 128.996 20.624 128.527 20.624C128.057 20.624 127.62 20.7413 127.215 20.976C126.809 21.2 126.479 21.536 126.223 21.984C125.977 22.4213 125.855 22.944 125.855 23.552C125.855 24.16 125.977 24.6933 126.223 25.152C126.479 25.6107 126.809 25.9627 127.215 26.208C127.631 26.4427 128.068 26.56 128.527 26.56C128.996 26.56 129.433 26.4427 129.839 26.208C130.244 25.9733 130.569 25.632 130.815 25.184C131.071 24.7253 131.199 24.192 131.199 23.584ZM143.37 19.184L137.962 32.144H136.074L137.866 27.856L134.394 19.184H136.426L138.906 25.904L141.482 19.184H143.37Z" fill="#476285"/>
</svg>
