<svg width="145" height="44" viewBox="0 0 145 44" fill="none" xmlns="http://www.w3.org/2000/svg">
<rect width="145" height="44" rx="12" fill="#CDE2FE"/>
<path d="M29.059 29.9471L28.983 29.87C28.5495 30.2902 28.1226 30.4477 27.7022 30.468C27.2644 30.4891 26.7923 30.3629 26.2821 30.14L26.2821 30.14L26.2763 30.1375C25.0046 29.6008 23.8103 29.5779 22.4714 30.1368L22.4714 30.1367L22.4663 30.1389C21.7446 30.4496 21.2633 30.528 20.8892 30.4761C20.5285 30.426 20.1944 30.2446 19.7847 29.8703C17.3093 27.3131 16.2792 24.1137 16.5392 21.5594C16.6691 20.2831 17.1178 19.1884 17.8425 18.4018C18.5564 17.6269 19.5655 17.1202 20.8912 17.0474C21.5159 17.0836 22.0553 17.2554 22.5661 17.4422C22.6377 17.4684 22.7107 17.4958 22.7848 17.5236C23.2105 17.6833 23.6721 17.8565 24.103 17.8892L24.1724 17.8945L24.2405 17.8806C24.726 17.7819 25.2182 17.6112 25.6735 17.4534C25.8368 17.3968 25.9953 17.3419 26.147 17.2925C26.7504 17.096 27.3048 16.9632 27.8694 17.0031C29.1295 17.1036 30.0835 17.5394 30.7655 18.2891C27.7912 20.5008 28.5218 24.6695 31.3633 26.1795C30.7975 27.5783 30.0821 28.8876 28.9872 29.8668L29.059 29.9471ZM25.1236 15.8162C24.9078 15.9072 24.7088 15.9629 24.5335 15.9889C24.6403 14.3252 25.9258 12.9507 27.4995 12.582C27.4488 13.5357 26.9724 14.3787 26.3288 15.0021C25.9502 15.3687 25.5259 15.6465 25.1236 15.8162Z" fill="#476285" stroke="#476285"/>
<path d="M53.9899 25.728H49.3339L48.5339 28H46.6299L50.6139 16.864H52.7259L56.7099 28H54.7899L53.9899 25.728ZM53.4779 24.24L51.6699 19.072L49.8459 24.24H53.4779ZM60.2662 20.48C60.5755 20.0747 60.9969 19.7333 61.5302 19.456C62.0635 19.1787 62.6662 19.04 63.3382 19.04C64.1062 19.04 64.8049 19.232 65.4342 19.616C66.0742 19.9893 66.5755 20.5173 66.9382 21.2C67.3009 21.8827 67.4822 22.6667 67.4822 23.552C67.4822 24.4373 67.3009 25.232 66.9382 25.936C66.5755 26.6293 66.0742 27.1733 65.4342 27.568C64.8049 27.952 64.1062 28.144 63.3382 28.144C62.6662 28.144 62.0689 28.0107 61.5462 27.744C61.0235 27.4667 60.5969 27.1253 60.2662 26.72V32.192H58.4422V19.184H60.2662V20.48ZM65.6262 23.552C65.6262 22.944 65.4982 22.4213 65.2422 21.984C64.9969 21.536 64.6662 21.2 64.2502 20.976C63.8449 20.7413 63.4075 20.624 62.9382 20.624C62.4795 20.624 62.0422 20.7413 61.6262 20.976C61.2209 21.2107 60.8902 21.552 60.6342 22C60.3889 22.448 60.2662 22.976 60.2662 23.584C60.2662 24.192 60.3889 24.7253 60.6342 25.184C60.8902 25.632 61.2209 25.9733 61.6262 26.208C62.0422 26.4427 62.4795 26.56 62.9382 26.56C63.4075 26.56 63.8449 26.4427 64.2502 26.208C64.6662 25.9627 64.9969 25.6107 65.2422 25.152C65.4982 24.6933 65.6262 24.16 65.6262 23.552ZM71.1099 20.48C71.4193 20.0747 71.8406 19.7333 72.3739 19.456C72.9073 19.1787 73.5099 19.04 74.1819 19.04C74.9499 19.04 75.6486 19.232 76.2779 19.616C76.9179 19.9893 77.4193 20.5173 77.7819 21.2C78.1446 21.8827 78.3259 22.6667 78.3259 23.552C78.3259 24.4373 78.1446 25.232 77.7819 25.936C77.4193 26.6293 76.9179 27.1733 76.2779 27.568C75.6486 27.952 74.9499 28.144 74.1819 28.144C73.5099 28.144 72.9126 28.0107 72.3899 27.744C71.8673 27.4667 71.4406 27.1253 71.1099 26.72V32.192H69.2859V19.184H71.1099V20.48ZM76.4699 23.552C76.4699 22.944 76.3419 22.4213 76.0859 21.984C75.8406 21.536 75.5099 21.2 75.0939 20.976C74.6886 20.7413 74.2513 20.624 73.7819 20.624C73.3233 20.624 72.8859 20.7413 72.4699 20.976C72.0646 21.2107 71.7339 21.552 71.4779 22C71.2326 22.448 71.1099 22.976 71.1099 23.584C71.1099 24.192 71.2326 24.7253 71.4779 25.184C71.7339 25.632 72.0646 25.9733 72.4699 26.208C72.8859 26.4427 73.3233 26.56 73.7819 26.56C74.2513 26.56 74.6886 26.4427 75.0939 26.208C75.5099 25.9627 75.8406 25.6107 76.0859 25.152C76.3419 24.6933 76.4699 24.16 76.4699 23.552ZM87.9499 28.112C87.2033 28.112 86.5313 27.984 85.9339 27.728C85.3366 27.4613 84.8673 27.088 84.5259 26.608C84.1846 26.128 84.0139 25.568 84.0139 24.928H85.9659C86.0086 25.408 86.1953 25.8027 86.5259 26.112C86.8673 26.4213 87.3419 26.576 87.9499 26.576C88.5793 26.576 89.0699 26.4267 89.4219 26.128C89.7739 25.8187 89.9499 25.424 89.9499 24.944C89.9499 24.5707 89.8379 24.2667 89.6139 24.032C89.4006 23.7973 89.1286 23.616 88.7979 23.488C88.4779 23.36 88.0299 23.2213 87.4539 23.072C86.7286 22.88 86.1366 22.688 85.6779 22.496C85.2299 22.2933 84.8459 21.984 84.5259 21.568C84.2059 21.152 84.0459 20.5973 84.0459 19.904C84.0459 19.264 84.2059 18.704 84.5259 18.224C84.8459 17.744 85.2939 17.376 85.8699 17.12C86.4459 16.864 87.1126 16.736 87.8699 16.736C88.9473 16.736 89.8273 17.008 90.5099 17.552C91.2033 18.0853 91.5873 18.8213 91.6619 19.76H89.6459C89.6139 19.3547 89.4219 19.008 89.0699 18.72C88.7179 18.432 88.2539 18.288 87.6779 18.288C87.1553 18.288 86.7286 18.4213 86.3979 18.688C86.0673 18.9547 85.9019 19.3387 85.9019 19.84C85.9019 20.1813 86.0033 20.464 86.2059 20.688C86.4193 20.9013 86.6859 21.072 87.0059 21.2C87.3259 21.328 87.7633 21.4667 88.3179 21.616C89.0539 21.8187 89.6513 22.0213 90.1099 22.224C90.5793 22.4267 90.9739 22.7413 91.2939 23.168C91.6246 23.584 91.7899 24.144 91.7899 24.848C91.7899 25.4133 91.6353 25.9467 91.3259 26.448C91.0273 26.9493 90.5846 27.3547 89.9979 27.664C89.4219 27.9627 88.7393 28.112 87.9499 28.112ZM96.0702 20.672V25.552C96.0702 25.8827 96.1449 26.1227 96.2942 26.272C96.4542 26.4107 96.7209 26.48 97.0942 26.48H98.2142V28H96.7742C95.9529 28 95.3235 27.808 94.8862 27.424C94.4489 27.04 94.2302 26.416 94.2302 25.552V20.672H93.1902V19.184H94.2302V16.992H96.0702V19.184H98.2142V20.672H96.0702ZM103.719 28.144C102.887 28.144 102.135 27.9573 101.463 27.584C100.791 27.2 100.263 26.6667 99.8793 25.984C99.4953 25.2907 99.3033 24.4907 99.3033 23.584C99.3033 22.688 99.5006 21.8933 99.8953 21.2C100.29 20.5067 100.829 19.9733 101.511 19.6C102.194 19.2267 102.957 19.04 103.799 19.04C104.642 19.04 105.405 19.2267 106.087 19.6C106.77 19.9733 107.309 20.5067 107.703 21.2C108.098 21.8933 108.295 22.688 108.295 23.584C108.295 24.48 108.093 25.2747 107.687 25.968C107.282 26.6613 106.727 27.2 106.023 27.584C105.33 27.9573 104.562 28.144 103.719 28.144ZM103.719 26.56C104.189 26.56 104.626 26.448 105.031 26.224C105.447 26 105.783 25.664 106.039 25.216C106.295 24.768 106.423 24.224 106.423 23.584C106.423 22.944 106.301 22.4053 106.055 21.968C105.81 21.52 105.485 21.184 105.079 20.96C104.674 20.736 104.237 20.624 103.767 20.624C103.298 20.624 102.861 20.736 102.455 20.96C102.061 21.184 101.746 21.52 101.511 21.968C101.277 22.4053 101.159 22.944 101.159 23.584C101.159 24.5333 101.399 25.2693 101.879 25.792C102.37 26.304 102.983 26.56 103.719 26.56ZM111.922 20.464C112.189 20.016 112.541 19.6693 112.978 19.424C113.426 19.168 113.954 19.04 114.562 19.04V20.928H114.098C113.384 20.928 112.84 21.1093 112.466 21.472C112.104 21.8347 111.922 22.464 111.922 23.36V28H110.098V19.184H111.922V20.464ZM124.319 23.376C124.319 23.7067 124.298 24.0053 124.255 24.272H117.519C117.572 24.976 117.834 25.5413 118.303 25.968C118.772 26.3947 119.348 26.608 120.031 26.608C121.012 26.608 121.706 26.1973 122.111 25.376H124.079C123.812 26.1867 123.327 26.8533 122.623 27.376C121.93 27.888 121.066 28.144 120.031 28.144C119.188 28.144 118.431 27.9573 117.759 27.584C117.098 27.2 116.575 26.6667 116.191 25.984C115.818 25.2907 115.631 24.4907 115.631 23.584C115.631 22.6773 115.812 21.8827 116.175 21.2C116.548 20.5067 117.066 19.9733 117.727 19.6C118.399 19.2267 119.167 19.04 120.031 19.04C120.863 19.04 121.604 19.2213 122.255 19.584C122.906 19.9467 123.412 20.4587 123.775 21.12C124.138 21.7707 124.319 22.5227 124.319 23.376ZM122.415 22.8C122.404 22.128 122.164 21.5893 121.695 21.184C121.226 20.7787 120.644 20.576 119.951 20.576C119.322 20.576 118.783 20.7787 118.335 21.184C117.887 21.5787 117.62 22.1173 117.535 22.8H122.415Z" fill="#476285"/>
</svg>
