<svg width="31" height="15" viewBox="0 0 31 15" fill="none" xmlns="http://www.w3.org/2000/svg">
<path d="M10.84 9.1H7.06V12.98H4.42V9.1H0.64V6.66H4.42V2.78H7.06V6.66H10.84V9.1ZM13.1966 3V0.419999H18.0166V15H15.1366V3H13.1966ZM21.6627 11.84C22.9427 10.7733 23.9627 9.88667 24.7227 9.18C25.4827 8.46 26.116 7.71333 26.6227 6.94C27.1293 6.16667 27.3827 5.40667 27.3827 4.66C27.3827 3.98 27.2227 3.44667 26.9027 3.06C26.5827 2.67333 26.0893 2.48 25.4227 2.48C24.756 2.48 24.2427 2.70667 23.8827 3.16C23.5227 3.6 23.336 4.20667 23.3227 4.98H20.6027C20.656 3.38 21.1293 2.16667 22.0227 1.34C22.9293 0.513332 24.076 0.0999987 25.4627 0.0999987C26.9827 0.0999987 28.1493 0.506666 28.9627 1.32C29.776 2.12 30.1827 3.18 30.1827 4.5C30.1827 5.54 29.9027 6.53333 29.3427 7.48C28.7827 8.42667 28.1427 9.25333 27.4227 9.96C26.7027 10.6533 25.7627 11.4933 24.6027 12.48H30.5027V14.8H20.6227V12.72L21.6627 11.84Z" fill="white"/>
</svg>
