<svg width="300" height="211" viewBox="0 0 300 211" fill="none" xmlns="http://www.w3.org/2000/svg">
<g id="surface">
<rect width="292" height="76" rx="12" transform="matrix(0.845728 0.533615 -0.689367 0.724413 52.3918 0)" fill="#171719" fill-opacity="0.15"/>
<g id="Frame 1075">
<path id="Price" d="M57.6529 20.8075C57.1731 21.3117 56.5703 21.6038 55.8445 21.6838C55.131 21.7622 54.3615 21.5411 53.5361 21.0203L52.1761 20.1622L49.7689 22.6919L48.8453 22.1092L54.6112 16.0502L56.8947 17.4909C57.693 17.9947 58.1414 18.5419 58.2398 19.1326C58.3449 19.7276 58.1493 20.2859 57.6529 20.8075ZM54.1565 20.3683C54.6707 20.6927 55.1406 20.8362 55.5661 20.7986C55.9917 20.761 56.3727 20.5655 56.7091 20.212C57.4205 19.4644 57.2756 18.7747 56.2742 18.1429L54.9143 17.2848L52.7966 19.5102L54.1565 20.3683ZM59.443 22.41C59.8646 22.2401 60.296 22.1737 60.737 22.2108C61.1849 22.2523 61.6253 22.4096 62.0583 22.6828L61.2807 23.4999L61.0372 23.3463C60.002 22.6931 59.0267 22.8475 58.1112 23.8096L55.646 26.4001L54.7225 25.8174L59.2558 21.0536L60.1793 21.6363L59.443 22.41ZM64.2549 22.9697C64.079 22.8587 63.9798 22.7126 63.9573 22.5314C63.9348 22.3503 63.9952 22.1844 64.1386 22.0337C64.282 21.883 64.4642 21.7939 64.6853 21.7665C64.9063 21.739 65.1048 21.7807 65.2807 21.8917C65.4499 21.9985 65.5423 22.1403 65.5581 22.3172C65.5806 22.4983 65.5201 22.6642 65.3768 22.8149C65.2334 22.9656 65.0511 23.0547 64.8301 23.0821C64.6158 23.1139 64.4241 23.0764 64.2549 22.9697ZM63.9652 24.0251L59.432 28.7888L58.5084 28.2061L63.0417 23.4424L63.9652 24.0251ZM62.9358 27.1737C63.4046 26.6811 63.9277 26.3248 64.5052 26.1048C65.0882 25.8791 65.6792 25.7928 66.2781 25.8461C66.8839 25.9037 67.4506 26.099 67.9784 26.432C68.6617 26.8631 69.0882 27.3594 69.2577 27.9209C69.434 28.4866 69.3533 29.0664 69.0156 29.6602L68.021 29.0327C68.202 28.6831 68.2338 28.3368 68.1164 27.9937C68.0057 27.6549 67.7473 27.3575 67.3414 27.1013C66.8136 26.7683 66.2385 26.6559 65.6159 26.7639C64.9989 26.8662 64.4201 27.2012 63.8797 27.7692C63.3337 28.3429 63.0742 28.8887 63.1011 29.4066C63.1281 29.9244 63.4054 30.3498 63.9332 30.6828C64.3391 30.9389 64.7546 31.0713 65.1797 31.0797C65.6047 31.0882 66.0114 30.9738 66.3996 30.7365L67.3942 31.364C66.7821 31.7569 66.1121 31.9603 65.3843 31.9741C64.662 31.9821 63.966 31.7748 63.2962 31.3522C62.7684 31.0192 62.3947 30.6211 62.175 30.1578C61.9621 29.6989 61.9171 29.2114 62.04 28.6953C62.1629 28.1793 62.4615 27.6721 62.9358 27.1737ZM74.6853 34.3088C74.5419 34.4594 74.3801 34.6124 74.1998 34.7677L69.7547 31.963C69.3418 32.4538 69.1777 32.9391 69.2623 33.4192C69.3592 33.8977 69.6512 34.2906 70.1383 34.598C70.5375 34.8498 70.9435 34.9808 71.3562 34.9908C71.7813 34.9993 72.1748 34.9044 72.5367 34.7061L73.5313 35.3336C72.9468 35.6975 72.2934 35.8835 71.5711 35.8915C70.8543 35.8938 70.1644 35.6857 69.5013 35.2673C68.9736 34.9344 68.5965 34.5341 68.37 34.0666C68.1504 33.6034 68.0986 33.1116 68.2147 32.5913C68.3364 32.0652 68.6316 31.5558 69.1004 31.0632C69.5692 30.5706 70.095 30.2114 70.678 29.9857C71.261 29.7599 71.8526 29.6787 72.4529 29.7421C73.0654 29.8039 73.6422 30.0056 74.1835 30.3471C74.7112 30.6801 75.0843 31.0732 75.3028 31.5263C75.5212 31.9795 75.5732 32.4483 75.4589 32.9326C75.3567 33.4154 75.0989 33.8741 74.6853 34.3088ZM73.8885 33.5417C74.1752 33.2403 74.3428 32.9333 74.3913 32.6207C74.4452 32.3023 74.3893 32.0027 74.2234 31.7218C74.0699 31.4394 73.8307 31.1958 73.5059 30.9909C73.0391 30.6963 72.5186 30.5719 71.9444 30.6178C71.377 30.6678 70.8545 30.904 70.377 31.3261L73.8885 33.5417Z" fill="#FDE7FD"/>
<path id="1.0 ETH" d="M39.3135 31.6305L40.7364 30.1353L43.9975 32.1929L35.9567 40.6424L34.0082 39.413L40.6261 32.4586L39.3135 31.6305ZM38.8065 42.5703C38.4637 42.3541 38.2641 42.0859 38.2077 41.7659C38.1676 41.4438 38.2763 41.1476 38.5337 40.8771C38.791 40.6067 39.1125 40.4509 39.4981 40.4098C39.9002 40.3666 40.2726 40.4532 40.6154 40.6695C40.9491 40.8801 41.136 41.1464 41.1761 41.4685C41.2235 41.7828 41.1185 42.0752 40.8611 42.3456C40.6037 42.6161 40.2786 42.7757 39.8856 42.8246C39.4999 42.8657 39.1402 42.7809 38.8065 42.5703ZM45.4684 39.7062C46.7405 38.3694 48.0166 37.4989 49.2965 37.0945C50.5854 36.6958 51.8839 36.9092 53.192 37.7345C54.5001 38.5598 55.0734 39.5276 54.9121 40.6377C54.7598 41.7535 54.0476 42.9799 52.7755 44.3166C51.4961 45.6612 50.2082 46.5366 48.9119 46.943C47.6246 47.3551 46.3269 47.1485 45.0189 46.3231C43.7108 45.4978 43.1366 44.5234 43.2962 43.3998C43.4649 42.2819 44.189 41.0507 45.4684 39.7062ZM50.9081 43.1384C51.4523 42.5666 51.8631 42.0591 52.1405 41.6158C52.4344 41.1705 52.5681 40.7417 52.5418 40.3294C52.5245 39.9227 52.2633 39.56 51.7581 39.2413C51.2529 38.9225 50.7519 38.8043 50.255 38.8865C49.7671 38.9744 49.2905 39.1869 48.8253 39.524C48.3764 39.8592 47.8799 40.3126 47.3358 40.8844C46.7769 41.4717 46.3469 41.9918 46.0458 42.4449C45.7519 42.8902 45.6182 43.319 45.6445 43.7313C45.6781 44.1359 45.9476 44.4976 46.4527 44.8164C46.9579 45.1351 47.4553 45.2572 47.9449 45.1828C48.4418 45.1006 48.9183 44.888 49.3745 44.5452C49.8381 44.1946 50.3493 43.7257 50.9081 43.1384ZM61.879 46.1465L59.9488 48.1748L63.1287 50.1812L61.9044 51.4678L58.7245 49.4614L56.6839 51.6057L60.2698 53.8682L59.0124 55.1895L53.5321 51.7317L61.242 43.6299L66.7223 47.0877L65.4649 48.409L61.879 46.1465ZM74.8604 52.241L73.614 53.5507L71.0971 51.9627L64.6446 58.7432L62.7502 57.5479L69.2027 50.7674L66.6858 49.1793L67.9322 47.8696L74.8604 52.241ZM84.0774 58.0565L76.3786 66.1467L74.4842 64.9515L77.76 61.509L73.7141 58.9562L70.4382 62.3986L68.5438 61.2033L76.2426 53.1131L78.137 54.3084L74.9715 57.6349L79.0174 60.1877L82.183 56.8612L84.0774 58.0565Z" fill="white"/>
<path id="$130,729.12" d="M26.0389 53.7556C25.7742 54.0338 25.4393 54.2491 25.0343 54.4017C24.6347 54.5484 24.196 54.6055 23.7181 54.5729C23.2469 54.5446 22.7804 54.4033 22.3186 54.149L21.6485 54.8532L21.1005 54.5074L21.7706 53.8032C21.199 53.3684 20.8582 52.8844 20.7483 52.3514C20.644 51.8125 20.8035 51.3149 21.2269 50.8586L22.2113 51.4797C22.0067 51.7402 21.9103 52.0179 21.922 52.3128C21.9405 52.612 22.0968 52.8915 22.391 53.1513L24.4591 50.978C24.0995 50.5935 23.8307 50.2616 23.6526 49.9822C23.4744 49.7029 23.392 49.3912 23.4054 49.0472C23.4188 48.7032 23.6019 48.3457 23.9549 47.9748C24.4016 47.5054 24.9605 47.2366 25.6317 47.1685C26.3096 47.1047 26.9832 47.2561 27.6522 47.6226L28.3388 46.901L28.8869 47.2468L28.2003 47.9683C28.7368 48.3718 29.0486 48.8236 29.1357 49.3237C29.2283 49.8181 29.0921 50.3026 28.7271 50.7771L27.7427 50.156C27.9018 49.9318 27.9707 49.6831 27.9492 49.4099C27.9332 49.1308 27.8046 48.8734 27.5633 48.6377L25.5448 50.7588C25.8976 51.139 26.1631 51.4688 26.3412 51.7482C26.5316 52.026 26.6168 52.3348 26.5966 52.6745C26.5833 53.0186 26.3974 53.3789 26.0389 53.7556ZM24.9401 48.5268C24.6698 48.8108 24.5611 49.09 24.6139 49.3645C24.6668 49.639 24.8357 49.945 25.1209 50.2826L27.0318 48.2745C26.6524 48.0815 26.2779 48.0029 25.9082 48.0386C25.544 48.0685 25.2213 48.2313 24.9401 48.5268ZM22.9307 53.5057C23.3292 53.7015 23.7209 53.7678 24.1059 53.7046C24.4976 53.6457 24.8203 53.483 25.074 53.2164C25.3442 52.9324 25.4495 52.651 25.39 52.3723C25.3359 52.0878 25.1669 51.7817 24.883 51.4542L22.9307 53.5057ZM31.1037 50.7046L31.7903 49.9831L33.6983 51.1869L27.7173 57.4719L26.7836 56.8828L32.078 51.3193L31.1037 50.7046ZM33.7588 53.7571C34.3135 53.2538 34.9508 52.9881 35.6705 52.96C36.3903 52.9318 37.0953 53.1355 37.7854 53.5709C38.2455 53.8612 38.5723 54.1834 38.766 54.5374C38.9719 54.89 39.0437 55.2413 38.9812 55.5914C38.9255 55.9458 38.7515 56.2766 38.4592 56.5837C38.1172 56.943 37.7004 57.1763 37.2087 57.2834C36.7237 57.3947 36.2525 57.3664 35.7952 57.1984L35.7538 57.2419C36.1054 57.6121 36.2801 58.0145 36.278 58.4491C36.2759 58.8837 36.0653 59.3212 35.6461 59.7617C35.3318 60.092 34.9598 60.335 34.5302 60.4906C34.1061 60.6404 33.6465 60.6796 33.1513 60.6083C32.656 60.537 32.1615 60.3455 31.6676 60.0339C30.9504 59.5814 30.5134 59.0506 30.3567 58.4416C30.2054 57.8268 30.384 57.2067 30.8924 56.5814L31.7855 57.1449C31.502 57.5225 31.3975 57.9111 31.4721 58.3106C31.5467 58.7101 31.8208 59.0593 32.2944 59.3581C32.768 59.657 33.2259 59.7789 33.668 59.7239C34.1224 59.6675 34.5095 59.4712 34.8294 59.135C35.243 58.7004 35.3716 58.2807 35.2153 57.876C35.059 57.4713 34.6392 57.0534 33.9559 56.6223L33.7225 56.475L34.3512 55.8143L34.5947 55.968C35.2227 56.3549 35.7756 56.5647 36.2536 56.5973C36.737 56.6241 37.1497 56.4578 37.4916 56.0985C37.7839 55.7913 37.8999 55.4703 37.8396 55.1355C37.786 54.8049 37.5427 54.503 37.1097 54.2298C36.6902 53.9651 36.2637 53.8444 35.8301 53.8676C35.3965 53.8908 35.0072 54.044 34.662 54.327L33.7588 53.7571ZM38.3325 59.0359C39.281 58.0391 40.2095 57.382 41.1178 57.0647C42.0316 56.7417 42.9622 56.8789 43.9094 57.4766C44.8498 58.07 45.242 58.7673 45.086 59.5685C44.9354 60.3639 44.3858 61.26 43.4373 62.2568C42.4722 63.2709 41.5327 63.9396 40.6189 64.2627C39.705 64.5857 38.7779 64.4506 37.8374 63.8572C36.8902 63.2596 36.4946 62.5601 36.6507 61.7589C36.8068 60.9577 37.3674 60.05 38.3325 59.0359ZM42.5239 61.6805C43.0037 61.1763 43.3684 60.7247 43.6182 60.3258C43.8801 59.9253 43.9914 59.541 43.9519 59.1729C43.9191 58.809 43.6761 58.4841 43.2228 58.1981C42.7627 57.9078 42.3088 57.793 41.8612 57.8538C41.4204 57.9188 40.9911 58.1025 40.5735 58.4047C40.1682 58.7055 39.7256 59.108 39.2459 59.6122C38.7495 60.1337 38.3703 60.5948 38.1084 60.9952C37.8531 61.4 37.7419 61.7843 37.7746 62.1481C37.8142 62.5162 38.064 62.8454 38.524 63.1357C38.9773 63.4217 39.4244 63.5322 39.8653 63.4672C40.3129 63.4065 40.7421 63.2228 41.153 62.9163C41.5706 62.614 42.0275 62.202 42.5239 61.6805ZM43.8012 65.8671L40.4392 67.4883L39.8202 67.0977L42.7863 65.2267L43.8012 65.8671ZM53.5743 64.7155L45.3594 68.6032L44.4257 68.0141L52.6068 64.2303L48.6894 61.7586L49.3346 61.0805L54.1451 64.1157L53.5743 64.7155ZM49.697 70.3244C51.1188 70.2755 52.2525 70.2163 53.0981 70.147C53.9492 70.0718 54.7363 69.9331 55.4594 69.7308C56.1947 69.527 56.7527 69.2252 57.1332 68.8253C57.4917 68.4486 57.6647 68.0847 57.6523 67.7337C57.6521 67.3812 57.4152 67.0555 56.9416 66.7566C56.4815 66.4664 56.0043 66.3647 55.5101 66.4517C55.0281 66.5371 54.5812 66.7792 54.1694 67.1779L53.2763 66.6144C53.921 65.9824 54.6281 65.6262 55.3975 65.5459C56.1669 65.4656 56.8933 65.641 57.5767 66.0722C58.2736 66.5119 58.6678 67.025 58.7594 67.6114C58.8578 68.2022 58.6312 68.7873 58.0797 69.3668C57.622 69.8478 57.0061 70.2105 56.2321 70.4549C55.4704 70.6978 54.711 70.8586 53.9539 70.9374C53.2023 71.0104 52.2771 71.0666 51.1783 71.1061L54.6695 73.3088L54.0408 73.9695L49.1593 70.8895L49.697 70.3244ZM57.8345 73.7754C57.5878 74.1484 57.5007 74.5016 57.5733 74.8349C57.6527 75.1725 57.9021 75.4737 58.3216 75.7383C58.8832 76.0927 59.4751 76.1647 60.0975 75.9545C60.7266 75.7486 61.459 75.1951 62.2948 74.2941C61.9045 74.4652 61.4719 74.5215 60.997 74.4631C60.5276 74.3988 60.09 74.2385 59.684 73.9824C59.2307 73.6964 58.8992 73.362 58.6895 72.9793C58.4921 72.595 58.4381 72.1853 58.5274 71.7501C58.6167 71.3149 58.8682 70.8799 59.2818 70.4453C59.8719 69.8252 60.5559 69.4591 61.3339 69.3471C62.1173 69.2293 62.8947 69.4137 63.666 69.9004C64.6132 70.498 65.0254 71.1801 64.9024 71.9465C64.7862 72.7172 64.2317 73.6241 63.239 74.6673C62.5442 75.3975 61.8928 75.9511 61.285 76.3281C60.6839 76.7094 60.0821 76.9094 59.4796 76.9281C58.8839 76.951 58.2714 76.764 57.6422 76.367C56.9521 75.9316 56.5658 75.4328 56.4835 74.8707C56.4012 74.3087 56.5673 73.7643 56.982 73.2375L57.8345 73.7754ZM60.4732 73.4091C60.9265 73.6951 61.4117 73.8111 61.9287 73.7571C62.4513 73.6972 62.9084 73.4616 63.2999 73.0501C63.7135 72.6155 63.9051 72.1752 63.8746 71.7293C63.8442 71.2834 63.5718 70.8983 63.0576 70.5738C62.584 70.275 62.0838 70.1635 61.557 70.2392C61.0369 70.3191 60.5784 70.5677 60.1813 70.985C59.7787 71.4081 59.5948 71.8346 59.6295 72.2646C59.6642 72.6946 59.9455 73.0761 60.4732 73.4091ZM61.8317 79.0799C61.6557 78.9689 61.5565 78.8228 61.534 78.6417C61.5115 78.4605 61.5719 78.2946 61.7153 78.1439C61.8587 77.9933 62.0409 77.9042 62.262 77.8767C62.483 77.8492 62.6815 77.891 62.8574 78.002C63.0266 78.1087 63.119 78.2505 63.1348 78.4274C63.1573 78.6086 63.0969 78.7745 62.9535 78.9252C62.8101 79.0758 62.6279 79.1649 62.4068 79.1924C62.1925 79.2241 62.0008 79.1866 61.8317 79.0799ZM68.6163 74.3733L69.303 73.6518L71.2109 74.8556L65.23 81.1406L64.2963 80.5515L69.5906 74.988L68.6163 74.3733ZM67.3086 81.4365C68.7304 81.3876 69.8641 81.3284 70.7097 81.2591C71.5608 81.1839 72.3479 81.0452 73.071 80.8429C73.8064 80.6391 74.3643 80.3373 74.7448 79.9374C75.1033 79.5607 75.2763 79.1969 75.2639 78.8458C75.2637 78.4933 75.0268 78.1676 74.5532 77.8687C74.0931 77.5785 73.616 77.4768 73.1217 77.5638C72.6398 77.6492 72.1928 77.8913 71.781 78.29L70.8879 77.7265C71.5326 77.0945 72.2397 76.7383 73.0091 76.658C73.7786 76.5777 74.505 76.7531 75.1883 77.1843C75.8852 77.624 76.2794 78.1371 76.371 78.7235C76.4694 79.3143 76.2428 79.8994 75.6913 80.4789C75.2336 80.96 74.6177 81.3226 73.8438 81.567C73.0821 81.8099 72.3227 81.9707 71.5655 82.0495C70.8139 82.1225 69.8887 82.1787 68.79 82.2182L72.2811 84.4209L71.6524 85.0816L66.7709 82.0016L67.3086 81.4365Z" fill="#FDE7FD"/>
</g>
<g id="Frame 1076">
<path id="Best offer" d="M227.886 130.081C228.11 130.278 228.257 130.515 228.329 130.792C228.408 131.073 228.406 131.36 228.324 131.651C228.248 131.947 228.095 132.216 227.863 132.459C227.571 132.767 227.215 132.987 226.795 133.121C226.381 133.249 225.929 133.275 225.439 133.198C224.962 133.119 224.486 132.93 224.012 132.631L221.374 130.967L227.14 124.908L229.677 126.508C230.157 126.812 230.5 127.139 230.706 127.492C230.918 127.839 230.998 128.181 230.946 128.52C230.895 128.858 230.731 129.172 230.456 129.462C230.114 129.822 229.715 130.047 229.258 130.14C228.815 130.231 228.357 130.211 227.886 130.081ZM225.573 128.107L227.126 129.087C227.559 129.36 227.977 129.484 228.379 129.46C228.781 129.435 229.128 129.269 229.421 128.962C229.713 128.655 229.823 128.34 229.752 128.017C229.681 127.693 229.422 127.391 228.975 127.109L227.443 126.142L225.573 128.107ZM224.552 131.928C225.012 132.219 225.459 132.352 225.892 132.329C226.326 132.306 226.7 132.129 227.014 131.798C227.334 131.462 227.45 131.113 227.361 130.751C227.278 130.384 227.01 130.057 226.556 129.771L224.953 128.759L222.918 130.897L224.552 131.928ZM235.113 135.531C234.969 135.682 234.807 135.835 234.627 135.99L230.182 133.185C229.769 133.676 229.605 134.161 229.69 134.641C229.786 135.12 230.078 135.513 230.566 135.82C230.965 136.072 231.371 136.203 231.784 136.213C232.209 136.221 232.602 136.127 232.964 135.928L233.959 136.556C233.374 136.92 232.721 137.106 231.998 137.114C231.282 137.116 230.592 136.908 229.929 136.489C229.401 136.157 229.024 135.756 228.797 135.289C228.578 134.826 228.526 134.334 228.642 133.813C228.764 133.287 229.059 132.778 229.528 132.285C229.996 131.793 230.522 131.434 231.105 131.208C231.688 130.982 232.28 130.901 232.88 130.964C233.493 131.026 234.07 131.228 234.611 131.569C235.139 131.902 235.512 132.295 235.73 132.748C235.949 133.202 236.001 133.67 235.886 134.155C235.784 134.638 235.526 135.096 235.113 135.531ZM234.316 134.764C234.603 134.462 234.77 134.155 234.819 133.843C234.873 133.524 234.817 133.225 234.651 132.944C234.497 132.662 234.258 132.418 233.933 132.213C233.466 131.918 232.946 131.794 232.372 131.84C231.804 131.89 231.282 132.126 230.804 132.548L234.316 134.764ZM235.786 140.185C235.359 139.916 235.035 139.614 234.813 139.279C234.596 138.938 234.494 138.595 234.507 138.251C234.526 137.902 234.663 137.575 234.919 137.273L235.873 137.875C235.674 138.129 235.617 138.405 235.704 138.7C235.797 139.001 236.034 139.27 236.412 139.509C236.764 139.731 237.105 139.84 237.435 139.834C237.765 139.829 238.026 139.725 238.219 139.522C238.418 139.314 238.456 139.092 238.333 138.857C238.216 138.616 237.977 138.303 237.618 137.918C237.293 137.565 237.043 137.259 236.868 137C236.704 136.739 236.616 136.456 236.603 136.151C236.602 135.845 236.748 135.538 237.04 135.231C237.272 134.987 237.569 134.818 237.931 134.722C238.293 134.625 238.685 134.618 239.107 134.698C239.534 134.773 239.947 134.936 240.346 135.188C240.962 135.576 241.332 136.023 241.457 136.529C241.583 137.035 241.438 137.528 241.024 138.009L240.1 137.426C240.317 137.164 240.389 136.889 240.316 136.602C240.25 136.319 240.037 136.064 239.679 135.838C239.347 135.629 239.025 135.523 238.713 135.521C238.401 135.519 238.152 135.617 237.964 135.814C237.815 135.97 237.749 136.137 237.764 136.314C237.792 136.489 237.864 136.664 237.979 136.839C238.107 137.012 238.294 137.237 238.54 137.513C238.851 137.857 239.087 138.155 239.249 138.405C239.417 138.65 239.503 138.918 239.508 139.209C239.52 139.504 239.391 139.798 239.122 140.092C238.874 140.353 238.566 140.534 238.199 140.636C237.831 140.738 237.434 140.752 237.007 140.677C236.592 140.601 236.185 140.437 235.786 140.185ZM244.233 138.809L241.561 141.617C241.34 141.849 241.241 142.05 241.262 142.221C241.289 142.386 241.444 142.559 241.728 142.738L242.408 143.167L241.771 143.836L240.939 143.311C240.425 142.987 240.136 142.642 240.072 142.277C240.008 141.912 240.196 141.498 240.637 141.034L243.309 138.226L242.589 137.772L243.209 137.12L243.93 137.574L245.071 136.375L245.995 136.957L244.853 138.157L246.305 139.073L245.684 139.725L244.233 138.809ZM247.947 147.858C247.426 147.53 247.049 147.129 246.816 146.658C246.589 146.19 246.531 145.694 246.64 145.169C246.762 144.643 247.057 144.134 247.526 143.641C247.989 143.155 248.519 142.803 249.116 142.585C249.724 142.367 250.336 142.293 250.949 142.365C251.569 142.431 252.142 142.631 252.67 142.964C253.198 143.297 253.578 143.699 253.811 144.171C254.05 144.637 254.115 145.132 254.005 145.657C253.903 146.185 253.617 146.696 253.148 147.189C252.679 147.681 252.137 148.035 251.522 148.249C250.918 148.462 250.304 148.534 249.678 148.463C249.052 148.393 248.475 148.191 247.947 147.858ZM248.609 147.163C248.94 147.372 249.315 147.502 249.733 147.552C250.151 147.602 250.574 147.55 251.004 147.394C251.44 147.243 251.84 146.976 252.204 146.593C252.568 146.211 252.789 145.831 252.867 145.453C252.945 145.076 252.902 144.733 252.739 144.427C252.582 144.114 252.338 143.853 252.006 143.644C251.668 143.431 251.293 143.301 250.882 143.255C250.484 143.207 250.073 143.263 249.65 143.423C249.227 143.583 248.834 143.854 248.47 144.237C248.1 144.625 247.87 145.004 247.778 145.373C247.694 145.746 247.727 146.087 247.877 146.395C248.034 146.698 248.277 146.954 248.609 147.163ZM258.264 147.662L257.097 146.925L253.184 151.037L252.26 150.454L256.173 146.343L255.452 145.888L256.073 145.236L256.793 145.691L257.116 145.352C257.623 144.818 258.152 144.53 258.702 144.488C259.263 144.443 259.9 144.645 260.61 145.094L259.981 145.754C259.575 145.498 259.222 145.386 258.92 145.419C258.631 145.45 258.337 145.621 258.04 145.934L257.717 146.273L258.884 147.01L258.264 147.662ZM261.604 149.769L260.436 149.033L256.524 153.144L255.6 152.562L259.513 148.45L258.792 147.995L259.413 147.343L260.133 147.798L260.456 147.459C260.963 146.926 261.492 146.638 262.041 146.595C262.603 146.551 263.24 146.753 263.95 147.201L263.321 147.862C262.915 147.606 262.562 147.494 262.26 147.526C261.971 147.557 261.677 147.729 261.38 148.042L261.057 148.381L262.224 149.117L261.604 149.769ZM266.282 155.198C266.139 155.348 265.977 155.501 265.797 155.656L261.352 152.852C260.939 153.343 260.775 153.828 260.859 154.308C260.956 154.786 261.248 155.179 261.735 155.487C262.134 155.739 262.54 155.87 262.953 155.88C263.378 155.888 263.772 155.793 264.134 155.595L265.128 156.222C264.544 156.586 263.89 156.772 263.168 156.78C262.451 156.783 261.761 156.574 261.098 156.156C260.571 155.823 260.194 155.423 259.967 154.955C259.747 154.492 259.696 154 259.812 153.48C259.933 152.954 260.229 152.445 260.697 151.952C261.166 151.459 261.692 151.1 262.275 150.874C262.858 150.649 263.45 150.567 264.05 150.631C264.662 150.693 265.239 150.894 265.781 151.236C266.308 151.569 266.681 151.962 266.9 152.415C267.118 152.868 267.17 153.337 267.056 153.821C266.954 154.304 266.696 154.763 266.282 155.198ZM265.485 154.43C265.772 154.129 265.94 153.822 265.988 153.509C266.042 153.191 265.986 152.891 265.82 152.611C265.667 152.328 265.428 152.085 265.103 151.88C264.636 151.585 264.116 151.461 263.541 151.507C262.974 151.557 262.452 151.793 261.974 152.215L265.485 154.43ZM269.782 155.124C270.203 154.954 270.634 154.887 271.076 154.925C271.523 154.966 271.964 155.123 272.397 155.397L271.619 156.214L271.376 156.06C270.34 155.407 269.365 155.561 268.45 156.523L265.984 159.114L265.061 158.531L269.594 153.767L270.518 154.35L269.782 155.124Z" fill="#FDE7FD"/>
<path id="1.5 ETH" d="M211.842 140.488L213.265 138.993L216.526 141.05L208.485 149.5L206.537 148.27L213.155 141.316L211.842 140.488ZM211.335 151.428C210.992 151.211 210.793 150.943 210.736 150.623C210.696 150.301 210.805 150.005 211.062 149.735C211.319 149.464 211.641 149.308 212.027 149.267C212.429 149.224 212.801 149.311 213.144 149.527C213.478 149.738 213.665 150.004 213.705 150.326C213.752 150.64 213.647 150.933 213.39 151.203C213.132 151.474 212.807 151.633 212.414 151.682C212.028 151.723 211.669 151.638 211.335 151.428ZM227.208 150.035L222.824 147.269L220.938 149.251C221.319 149.169 221.744 149.178 222.213 149.276C222.69 149.367 223.127 149.537 223.524 149.788C224.246 150.243 224.708 150.751 224.91 151.312C225.113 151.873 225.116 152.431 224.919 152.987C224.729 153.535 224.407 154.049 223.951 154.528C223.105 155.416 222.127 155.943 221.017 156.108C219.916 156.279 218.82 156.021 217.728 155.332C216.7 154.683 216.088 153.945 215.894 153.117C215.7 152.29 215.9 151.495 216.496 150.733L218.336 151.894C218.123 152.254 218.068 152.615 218.171 152.977C218.284 153.345 218.561 153.668 219.003 153.947C219.535 154.283 220.072 154.393 220.615 154.278C221.158 154.163 221.653 153.87 222.102 153.398C222.558 152.919 222.764 152.468 222.719 152.044C222.691 151.618 222.411 151.238 221.879 150.902C221.5 150.663 221.107 150.545 220.7 150.548C220.293 150.55 219.907 150.653 219.541 150.855L217.728 149.711L222.449 144.75L228.565 148.609L227.208 150.035ZM234.368 154.979L232.438 157.007L235.618 159.014L234.393 160.3L231.213 158.294L229.173 160.438L232.759 162.701L231.501 164.022L226.021 160.564L233.731 152.462L239.211 155.92L237.954 157.241L234.368 154.979ZM247.349 161.073L246.103 162.383L243.586 160.795L237.133 167.576L235.239 166.38L241.692 159.6L239.175 158.012L240.421 156.702L247.349 161.073ZM256.566 166.889L248.867 174.979L246.973 173.784L250.249 170.341L246.203 167.789L242.927 171.231L241.033 170.036L248.731 161.946L250.626 163.141L247.46 166.467L251.506 169.02L254.672 165.694L256.566 166.889Z" fill="white"/>
<g id="Frame 1134">
<g id="clock" clip-path="url(#clip0_2_1179)">
<path id="Vector" d="M196.024 164.825C198.359 166.299 201.796 165.871 203.699 163.871C205.603 161.871 205.253 159.054 202.918 157.581C200.582 156.107 197.146 156.534 195.242 158.535C193.339 160.535 193.689 163.352 196.024 164.825Z" stroke="#FDE7FD" stroke-linecap="round" stroke-linejoin="round"/>
<path id="Vector_2" d="M201.539 159.03L199.471 161.203L200.473 162.995" stroke="#FDE7FD" stroke-linecap="round" stroke-linejoin="round"/>
</g>
<path id="4hrs left" d="M206.908 168.293L207.479 167.693L215.062 165.716L216.168 166.414L212.23 170.552L213.245 171.192L212.592 171.879L211.577 171.239L210.245 172.638L209.332 172.062L210.663 170.662L206.908 168.293ZM214.509 166.689L208.628 168.279L211.358 170.001L214.509 166.689ZM219.711 170.848C220.131 171.113 220.435 171.43 220.624 171.8C220.819 172.164 220.865 172.559 220.762 172.986C220.666 173.417 220.409 173.853 219.99 174.293L217.318 177.101L216.404 176.525L218.969 173.83C219.421 173.355 219.627 172.905 219.587 172.481C219.552 172.051 219.294 171.684 218.814 171.381C218.327 171.074 217.814 170.959 217.275 171.036C216.742 171.117 216.239 171.407 215.765 171.906L213.258 174.54L212.335 173.957L218.456 167.524L219.38 168.107L217.146 170.454C217.561 170.326 217.99 170.295 218.435 170.363C218.887 170.434 219.312 170.596 219.711 170.848ZM223.547 174.645C223.968 174.475 224.4 174.409 224.841 174.446C225.289 174.488 225.729 174.645 226.162 174.918L225.385 175.735L225.141 175.582C224.106 174.928 223.13 175.083 222.215 176.045L219.75 178.635L218.826 178.053L223.36 173.289L224.283 173.872L223.547 174.645ZM224.507 181.762C224.08 181.493 223.756 181.191 223.534 180.856C223.317 180.515 223.215 180.172 223.228 179.828C223.247 179.479 223.384 179.152 223.64 178.85L224.594 179.452C224.395 179.706 224.338 179.982 224.425 180.278C224.518 180.578 224.755 180.847 225.133 181.086C225.485 181.308 225.826 181.417 226.156 181.411C226.486 181.406 226.747 181.302 226.94 181.099C227.139 180.891 227.177 180.669 227.054 180.434C226.937 180.193 226.698 179.88 226.339 179.495C226.014 179.142 225.764 178.836 225.589 178.577C225.425 178.316 225.337 178.033 225.324 177.728C225.323 177.422 225.469 177.115 225.761 176.808C225.993 176.564 226.29 176.395 226.652 176.299C227.014 176.202 227.406 176.195 227.828 176.275C228.255 176.35 228.668 176.513 229.067 176.765C229.683 177.153 230.053 177.6 230.178 178.106C230.304 178.612 230.159 179.105 229.745 179.586L228.821 179.003C229.038 178.741 229.11 178.466 229.037 178.179C228.971 177.896 228.758 177.641 228.4 177.415C228.068 177.206 227.746 177.1 227.434 177.098C227.122 177.096 226.873 177.194 226.685 177.391C226.536 177.547 226.47 177.714 226.485 177.891C226.513 178.066 226.585 178.241 226.7 178.416C226.828 178.589 227.015 178.814 227.261 179.09C227.572 179.434 227.808 179.732 227.97 179.982C228.138 180.227 228.224 180.495 228.229 180.786C228.241 181.081 228.112 181.375 227.843 181.669C227.595 181.93 227.287 182.111 226.92 182.213C226.552 182.315 226.155 182.329 225.728 182.254C225.313 182.178 224.906 182.014 224.507 181.762ZM237.665 179.644L231.544 186.077L230.62 185.494L236.742 179.061L237.665 179.644ZM240.632 187.707C240.489 187.858 240.327 188.011 240.147 188.166L235.702 185.361C235.289 185.852 235.125 186.338 235.209 186.818C235.306 187.296 235.598 187.689 236.086 187.996C236.485 188.248 236.891 188.379 237.303 188.389C237.729 188.398 238.122 188.303 238.484 188.105L239.479 188.732C238.894 189.096 238.241 189.282 237.518 189.29C236.802 189.292 236.112 189.084 235.449 188.666C234.921 188.333 234.544 187.933 234.317 187.465C234.098 187.002 234.046 186.51 234.162 185.99C234.284 185.464 234.579 184.954 235.048 184.462C235.516 183.969 236.042 183.61 236.625 183.384C237.208 183.158 237.8 183.077 238.4 183.141C239.013 183.202 239.589 183.404 240.131 183.746C240.658 184.079 241.032 184.472 241.25 184.925C241.468 185.378 241.52 185.847 241.406 186.331C241.304 186.814 241.046 187.273 240.632 187.707ZM239.836 186.94C240.122 186.639 240.29 186.332 240.339 186.019C240.392 185.701 240.337 185.401 240.171 185.12C240.017 184.838 239.778 184.594 239.453 184.389C238.986 184.095 238.466 183.97 237.892 184.016C237.324 184.066 236.802 184.302 236.324 184.725L239.836 186.94ZM245.587 188.357L244.42 187.621L240.507 191.732L239.584 191.15L243.497 187.038L242.776 186.583L243.396 185.931L244.117 186.386L244.44 186.047C244.947 185.514 245.475 185.226 246.025 185.183C246.587 185.139 247.223 185.341 247.934 185.789L247.305 186.45C246.899 186.193 246.545 186.082 246.244 186.114C245.954 186.145 245.661 186.317 245.363 186.63L245.041 186.969L246.208 187.705L245.587 188.357ZM247.79 189.747L245.118 192.555C244.898 192.787 244.798 192.988 244.819 193.159C244.846 193.325 245.002 193.497 245.286 193.676L245.966 194.105L245.329 194.775L244.497 194.25C243.983 193.925 243.693 193.58 243.629 193.215C243.565 192.85 243.754 192.436 244.195 191.972L246.867 189.164L246.146 188.71L246.767 188.058L247.487 188.513L248.629 187.313L249.553 187.896L248.411 189.095L249.862 190.011L249.242 190.663L247.79 189.747Z" fill="#FDE7FD"/>
</g>
</g>
</g>
<defs>
<clipPath id="clip0_2_1179">
<rect width="12" height="12" fill="white" transform="matrix(0.845728 0.533615 -0.689367 0.724413 198.533 153.655)"/>
</clipPath>
</defs>
</svg>
