<svg width="291" height="208" viewBox="0 0 291 208" fill="none" xmlns="http://www.w3.org/2000/svg">
<path d="M3 43.4998L40.5 3.49976C44.443 -0.670751 53.1502 -0.56937 58 2.49987L286.5 146C292.881 150.038 289.675 162.103 284.487 167.59L250.5 203.5C246.811 207.402 242.584 208.379 235.502 206.441C234.5 206.167 233.555 205.719 232.676 205.166L8.31507 63.7936C0.499979 57.4998 -2.18811 48.9872 3 43.4998Z" fill="url(#paint0_linear_2_1178)" fill-opacity="0.5"/>
<path d="M3 43.4998L40.5 3.49976C44.443 -0.670751 53.1502 -0.56937 58 2.49987L286.5 146C292.881 150.038 289.675 162.103 284.487 167.59L250.5 203.5C246.811 207.402 242.584 208.379 235.502 206.441C234.5 206.167 233.555 205.719 232.676 205.166L8.31507 63.7936C0.499979 57.4998 -2.18811 48.9872 3 43.4998Z" fill="#171719" fill-opacity="0.1"/>
<defs>
<linearGradient id="paint0_linear_2_1178" x1="260.5" y1="117" x2="8.99999" y2="82.5001" gradientUnits="userSpaceOnUse">
<stop stop-color="#14A1FF"/>
<stop offset="1" stop-color="#F53DF5"/>
</linearGradient>
</defs>
</svg>
